<svg width="119" height="128" viewBox="0 0 119 128" fill="none" xmlns="http://www.w3.org/2000/svg">
<g id="Group 473">
<rect id="Rectangle 109" y="34" width="113" height="91" rx="45.5" fill="#759748"/>
<g id="Group 467">
<path id="Vector" d="M91.411 125.855L38.6885 124.357C38.6885 124.357 42.657 100.617 29.9244 94.029C21.246 89.5352 13.5439 68.5453 15.7349 54.2626C15.7647 54.0726 15.7945 53.8826 15.8281 53.6962C16.9385 47.302 20.1132 42.3498 26.1833 41.0047C45.8056 36.6599 59.8088 40.0284 59.8088 40.0284C59.8088 40.0284 63.0507 40.0694 67.8538 40.9711C68.0252 41.001 68.1966 41.0345 68.368 41.0717C81.965 43.736 107.099 53.223 108.187 86.9082C109.685 133.188 91.411 125.847 91.411 125.847V125.855Z" fill="#414553"/>
<path id="Vector_2" d="M67.8533 40.9747C67.7639 43.3893 67.2161 45.789 66.2175 48.0694C64.1457 52.798 60.3673 56.4087 55.5828 58.2383C41.2517 63.7234 24.5284 58.283 16.0698 52.3844C16.0363 52.5707 15.3656 56.1069 15.3358 56.297C19.0806 58.8606 37.41 61.3311 40.8866 61.3311C46.1666 61.3311 51.2492 60.4554 55.7691 58.7227C60.6841 56.841 64.5631 53.1297 66.6907 48.2744C67.708 45.9566 68.2669 43.5234 68.3676 41.0716C68.1961 41.0343 68.0247 41.0008 67.8533 40.9709V40.9747Z" fill="#D5E0C7"/>
<path id="Vector_3" d="M71.7512 44.0489L63.3485 22.9174C63.3485 22.9174 73.4355 5.62768 65.5098 3.70867C57.5841 1.78593 49.4199 12.1113 49.4199 12.1113C49.4199 12.1113 34.2914 6.82753 28.5306 11.15C28.5306 11.15 18.9243 -2.29803 13.1636 0.343875C7.3991 2.98578 15.213 22.0231 15.213 22.0231C15.213 22.0231 3.31887 39.4843 12.4444 49.5675C21.57 59.6544 55.9073 67.8186 71.7549 44.0452L71.7512 44.0489Z" fill="#414553"/>
<path id="Vector_4" d="M89.775 113.208C92.6367 114.482 95.6252 115.779 98.7552 115.656C101.885 115.533 105.175 113.517 105.664 110.424C105.917 108.826 105.418 107.115 106.029 105.617C106.852 103.605 109.505 102.827 111.566 103.516C113.63 104.205 115.143 105.986 116.231 107.868C118.266 111.393 119.078 116.021 116.898 119.457C115.009 122.434 111.424 123.783 108.093 124.938C103.651 126.477 98.6956 128.001 94.3918 126.112C90.0656 124.211 87.7069 118.723 89.3092 114.277" fill="#414553"/>
<path id="Vector_5" d="M42.4368 34.5508C42.4368 34.5508 37.2648 32.4827 33.9075 35.0687L37.7865 41.0158L42.4406 34.5545L42.4368 34.5508Z" fill="#D5E0C7"/>
<path id="Vector_6" d="M15.2912 61.6926L24.8564 112.623C24.8564 112.623 10.38 127.36 28.9926 127.099C47.6051 126.842 42.176 117.277 42.176 117.277L36.2289 73.0688" fill="#414553"/>
<path id="Vector_7" d="M28.523 127.476C23.4815 127.476 20.4334 126.321 19.4571 124.036C17.6797 119.878 23.4665 113.54 24.4577 112.496L18.0262 74.4216L18.7603 74.2986L25.2551 112.746L25.121 112.88C25.0539 112.947 18.4361 119.755 20.1427 123.742C21.0184 125.791 23.9882 126.794 28.9888 126.723C35.9383 126.626 40.4172 125.169 41.945 122.512C43.3199 120.12 41.8667 117.482 41.8518 117.456L41.8183 117.393L41.8071 117.322L37.671 86.5579L38.4088 86.4573L42.5374 117.154C42.7834 117.62 44.0689 120.306 42.5971 122.878C40.9091 125.821 36.3332 127.368 29 127.468C28.8398 127.468 28.6833 127.468 28.5268 127.468L28.523 127.476Z" fill="#323542"/>
<path id="Vector_8" d="M39.5899 61.6926L49.1551 112.623C49.1551 112.623 34.6787 127.36 53.2913 127.099C71.9038 126.842 66.4747 117.277 66.4747 117.277L60.5276 73.0688" fill="#414553"/>
<path id="Vector_9" d="M52.8217 127.476C47.7801 127.476 44.7321 126.32 43.7558 124.036C41.9784 119.885 47.7541 113.554 48.7527 112.5L44.9109 92.0056L45.645 91.8677L49.5576 112.742L49.4197 112.88C49.3526 112.947 42.7348 119.755 44.4414 123.742C45.3171 125.791 48.2906 126.797 53.2875 126.723C60.2407 126.626 64.7233 125.169 66.2474 122.505C67.6224 120.105 66.1654 117.482 66.1505 117.456L66.1132 117.392L60.1587 73.1135L60.8965 73.0129L66.8324 117.154C67.0783 117.62 68.3639 120.306 66.892 122.877C65.204 125.821 60.6282 127.368 53.295 127.468C53.1347 127.468 52.9782 127.468 52.8217 127.468V127.476Z" fill="#323542"/>
</g>
</g>
</svg>
